<?xml version="1.0" encoding="UTF-8"?>
<svg width="135px" height="126px" viewBox="0 0 135 126" version="1.1" xmlns="http://www.w3.org/2000/svg" xmlns:xlink="http://www.w3.org/1999/xlink">
    <!-- Generator: Sketch 47.1 (45422) - http://www.bohemiancoding.com/sketch -->
    <title>Group icon</title>
    <desc>Created with Sketch.</desc>
    <defs>
        <linearGradient x1="0%" y1="0%" x2="101.999998%" y2="100.999999%" id="linearGradient-1">
            <stop stop-color="#00EAF8" offset="0%"></stop>
            <stop stop-color="#6D42EF" offset="100%"></stop>
        </linearGradient>
    </defs>
    <g id="Landing-page-design" stroke="none" stroke-width="1" fill="none" fill-rule="evenodd" fill-opacity="0.300000012">
        <g id="Mobile-design" transform="translate(-40.000000, -2998.000000)" fill="url(#linearGradient-1)">
            <g id="Features-section" transform="translate(0.000000, 896.000000)">
                <g id="Features" transform="translate(4.000000, 395.000000)">
                    <g id="Feature-3-(Smart-sync)" transform="translate(24.000000, 1707.000000)">
                        <g id="About-feature">
                            <g id="Feature-content-intro" transform="translate(0.000000, 0.664122)">
                                <g id="Group-icon" transform="translate(12.000000, 0.000000)">
                                    <path d="M27.0003452,35.7148973 C22.0310941,35.7148973 17.7893663,33.9708904 14.2734357,30.4837329 C10.7583681,26.9957192 9.00040273,22.7876712 9.00040273,17.8578767 C9.00040273,12.9280822 10.7583681,8.72003425 14.2734357,5.23202055 C17.7893663,1.74400685 22.0310941,0 27.0003452,0 C31.9695962,0 36.211324,1.74400685 39.7263916,5.23202055 C43.2423223,8.72003425 45.0002876,12.9289384 45.0002876,17.8578767 C45.0002876,22.7868151 43.2423223,26.9957192 39.7263916,30.4837329 C36.211324,33.9717466 31.9695962,35.7148973 27.0003452,35.7148973 Z M48.4100672,63.5830479 C43.1370342,58.3510274 40.4996547,52.0385274 40.4996547,44.6438356 C40.4996547,37.2491438 43.1370342,30.9366438 48.4100672,25.7054795 C53.6831001,20.4743151 60.0461234,17.8578767 67.4999999,17.8578767 C74.9538764,17.8578767 81.3168997,20.4734589 86.5899326,25.7054795 C91.8629656,30.9375 94.4994821,37.25 94.4994821,44.6438356 C94.4994821,52.0376712 91.8629656,58.3501712 86.5899326,63.5830479 C81.3168997,68.8133562 74.9538764,71.4297945 67.4999999,71.4297945 C60.0461234,71.4297945 53.6831001,68.8133562 48.4100672,63.5830479 Z M108.001381,35.7148973 C103.031267,35.7148973 98.7895388,33.9708904 95.2736082,30.4837329 C91.7594036,26.9957192 90.0014382,22.7876712 90.0014382,17.8578767 C90.0014382,12.9280822 91.7594036,8.72003425 95.2736082,5.23202055 C98.7895388,1.74400685 103.031267,0 108.001381,0 C112.968906,0 117.211496,1.74400685 120.727427,5.23202055 C124.242495,8.72003425 125.999597,12.9289384 125.999597,17.8578767 C125.999597,22.7868151 124.242495,26.9957192 120.727427,30.4837329 C117.211496,33.9717466 112.968906,35.7148973 108.001381,35.7148973 Z M126.280941,35.7157534 C132.095085,35.7148973 135.000863,43.9229452 135,60.3390411 C135,63.9657534 133.687351,66.7217466 131.062917,68.6044521 C128.438483,70.4871575 125.203896,71.4306507 121.360018,71.4306507 L111.938464,71.4306507 C107.109021,65.7097603 100.898752,62.7337329 93.3042037,62.5008562 C97.1023409,57.0599315 99.0009779,51.1078767 99.0009779,44.6438356 C99.0009779,43.2953767 98.8836077,41.760274 98.6497301,40.0402397 C101.744509,41.1104452 104.859999,41.6446918 108.001381,41.6446918 C110.766487,41.6446918 113.55662,41.1446918 116.368329,40.1455479 C119.180038,39.1455479 121.46617,38.1575342 123.223272,37.1806507 C124.981237,36.2037671 126.00046,35.7157534 126.280941,35.7157534 Z M115.771984,92.1113014 C116.263041,94.8321918 116.590987,97.3655822 116.756687,99.7148973 C116.918071,102.064212 117.00092,104.470034 117.00092,106.934932 C117.00092,112.514555 115.290421,116.921233 111.868559,120.152397 C108.444971,123.383562 103.898599,125 98.2268518,125 L36.773148,125 C31.1022643,125 26.5550285,123.383562 23.1323036,120.152397 C19.7104418,116.921233 17.9999424,112.514555 17.9999424,106.934932 C17.9999424,104.470034 18.081929,102.063356 18.2459022,99.7148973 C18.4098754,97.3655822 18.7378218,94.8321918 19.2306045,92.1113014 C19.7233871,89.390411 20.3438962,86.8672945 21.0938578,84.5428082 C21.8438195,82.2166096 22.8518232,79.9511986 24.1170059,77.7422945 C25.3830516,75.5342466 26.8355089,73.6489726 28.476967,72.0916096 C30.117562,70.5333904 32.1214872,69.2902397 34.4887424,68.359589 C36.8559976,67.4297945 39.4692126,66.9648973 42.3283874,66.9648973 C42.7978686,66.9648973 43.8050093,67.4648973 45.3523985,68.4648973 C46.8989247,69.4640411 48.6094241,70.5813356 50.4847597,71.8125 C52.3600953,73.0436644 54.8671593,74.1601027 58.0085406,75.1601027 C61.1490589,76.1601027 64.3137417,76.6601027 67.5008629,76.6601027 C70.6871211,76.6601027 73.8509409,76.1601027 76.9931853,75.1601027 C80.1354296,74.1601027 82.6416305,73.0436644 84.5169662,71.8125 C86.3923018,70.5813356 88.1019381,69.4640411 89.6493274,68.4648973 C91.1967166,67.4648973 92.2038572,66.9648973 92.6733384,66.9648973 C95.5316502,66.9648973 98.1457282,67.4297945 100.512983,68.359589 C102.879376,69.2902397 104.883301,70.5333904 106.524759,72.0916096 C108.166217,73.6498288 109.619537,75.5342466 110.885583,77.7422945 C112.149903,79.9511986 113.157906,82.2174658 113.907868,84.5428082 C114.65783,86.8672945 115.280065,89.390411 115.771984,92.1113014 Z M41.6949331,62.5008562 C34.1012478,62.7337329 27.8909786,65.7097603 23.0623993,71.4297945 L13.6399813,71.4297945 C9.79696728,71.4297945 6.56238013,70.4871575 3.93708287,68.6044521 C1.31264863,66.7217466 0,63.9657534 0,60.3390411 C0,43.9238014 2.90664075,35.7157534 8.71905924,35.7157534 C9.00040273,35.7157534 10.0204886,36.2037671 11.778454,37.1806507 C13.5355563,38.1575342 15.8216879,39.1455479 18.6333968,40.1455479 C21.4459687,41.1446918 24.2343762,41.6446918 27.0003452,41.6446918 C30.1408635,41.6446918 33.2580803,41.109589 36.3519958,40.0402397 C36.1181182,41.7611301 36.0007479,43.2953767 36.0007479,44.6438356 C35.9998849,51.1078767 37.8976589,57.0599315 41.6949331,62.5008562 Z" id="Group"></path>
                                </g>
                            </g>
                        </g>
                    </g>
                </g>
            </g>
        </g>
    </g>
</svg>