<?xml version="1.0" encoding="UTF-8"?>
<svg width="24px" height="20px" viewBox="0 0 24 20" version="1.1" xmlns="http://www.w3.org/2000/svg" xmlns:xlink="http://www.w3.org/1999/xlink">
    <!-- Generator: Sketch 47.1 (45422) - http://www.bohemiancoding.com/sketch -->
    <title>Heart icon</title>
    <desc>Created with Sketch.</desc>
    <defs>
        <linearGradient x1="0%" y1="0%" x2="101.999998%" y2="100.999999%" id="linearGradient-1">
            <stop stop-color="#FF0467" offset="0%"></stop>
            <stop stop-color="#FC7437" offset="100%"></stop>
        </linearGradient>
    </defs>
    <g id="Landing-page-design" stroke="none" stroke-width="1" fill="none" fill-rule="evenodd">
        <g id="Mobile-design" transform="translate(-239.000000, -1113.000000)" fill="url(#linearGradient-1)">
            <g id="Features-section" transform="translate(-30.000000, 896.000000)">
                <g id="Section-title" transform="translate(30.000000, 0.000000)">
                    <g id="Title" transform="translate(12.000000, 177.000000)">
                        <g id="Heart-icon" transform="translate(227.000000, 40.000000)">
                            <path d="M22.2989589,1.61464576 C21.1650411,0.538108709 19.598137,0 17.5979178,0 C17.0444384,0 16.4796164,0.0933339726 15.9037808,0.279842099 C15.3277808,0.466510045 14.7920548,0.718383916 14.2967671,1.03514408 C13.8011507,1.35190424 13.3750685,1.64932637 13.0176986,1.92709082 C12.6606575,2.20485528 12.3213699,2.50003995 12,2.81248502 C11.6784658,2.50003995 11.3391781,2.20485528 10.982137,1.92709082 C10.6249315,1.64932637 10.1986849,1.35206406 9.70306849,1.03514408 C9.20745205,0.718224097 8.67172603,0.466510045 8.09589041,0.279842099 C7.52005479,0.0933339726 6.95523288,0 6.40175342,0 C4.40169863,0 2.83479452,0.538268527 1.70087671,1.61464576 C0.566958904,2.691023 0,4.18404692 0,6.09371754 C0,6.67529686 0.105041096,7.27445622 0.314794521,7.89055633 C0.524547945,8.50681626 0.763561644,9.03213949 1.03134247,9.46604657 C1.29912329,9.89995365 1.60273973,10.3233127 1.9420274,10.7356443 C2.28131507,11.1479759 2.52920548,11.4321331 2.68536986,11.5884355 C2.84153425,11.7445782 2.96432877,11.85741 3.05358904,11.9267712 L11.4106849,19.7653865 C11.5714521,19.9218488 11.7678904,20 12,20 C12.2321096,20 12.4285479,19.9218488 12.5893151,19.7657062 L20.9330959,11.9529814 C22.9776986,9.9653194 24,8.01217817 24,6.09371754 C24,4.18404692 23.4328767,2.691023 22.2989589,1.61464576 L22.2989589,1.61464576 Z" id="Heart"></path>
                        </g>
                    </g>
                </g>
            </g>
        </g>
    </g>
</svg>