<?xml version="1.0" encoding="UTF-8"?>
<svg width="125px" height="151px" viewBox="0 0 125 151" version="1.1" xmlns="http://www.w3.org/2000/svg" xmlns:xlink="http://www.w3.org/1999/xlink">
    <!-- Generator: Sketch 47.1 (45422) - http://www.bohemiancoding.com/sketch -->
    <title>Feature icon</title>
    <desc>Created with Sketch.</desc>
    <defs>
        <linearGradient x1="0%" y1="0%" x2="101.999998%" y2="100.999999%" id="linearGradient-1">
            <stop stop-color="#FFD529" offset="0%"></stop>
            <stop stop-color="#FD8440" offset="100%"></stop>
        </linearGradient>
    </defs>
    <g id="Landing-page-design" stroke="none" stroke-width="1" fill="none" fill-rule="evenodd" fill-opacity="0.3">
        <g id="Mobile-design" transform="translate(-30.000000, -1715.000000)" fill="url(#linearGradient-1)">
            <g id="Features-section" transform="translate(-30.000000, 896.000000)">
                <g id="Features" transform="translate(0.000000, 395.000000)">
                    <g id="Feature-1-(Privacy)" transform="translate(55.000000, 424.000000)">
                        <g id="About-feature">
                            <g id="Feature-icon" transform="translate(5.000000, 0.000000)">
                                <g id="Lock-icon">
                                    <path d="M121.959469,71.6393093 C119.933781,69.6372258 117.475254,68.6368423 114.579892,68.6368423 L111.110518,68.6368423 L111.110518,48.0447366 C111.110518,34.8896928 106.335967,23.5945727 96.7881981,14.1567436 C87.2390969,4.71891454 75.8108071,0 62.4993334,0 C49.1878597,0 37.7582382,4.71891454 28.2104688,14.1567436 C18.6613676,23.5945727 13.8881488,34.8896928 13.8881488,48.0447366 L13.8881488,68.6368423 L10.4161116,68.6368423 C7.5234132,68.6368423 5.06355408,69.6372258 3.03786608,71.6393093 C1.01217809,73.6400764 0,76.0712717 0,78.9328951 L0,140.705263 C0,143.564254 1.01217809,145.99545 3.03786608,147.997533 C5.06355408,149.9983 7.5234132,151 10.4161116,151 L114.582555,151 C117.477917,151 119.936445,149.999616 121.962133,147.997533 C123.986489,145.99545 124.999999,143.564254 124.999999,140.705263 L124.999999,78.9315789 C125.001331,76.072588 123.986489,73.6413927 121.959469,71.6393093 L121.959469,71.6393093 Z M90.2769629,68.6368423 L34.7217039,68.6368423 L34.7217039,48.0447366 C34.7217039,40.4668311 37.4346076,33.9959291 42.8604149,28.634663 C48.2862222,23.2720806 54.8320844,20.5921057 62.5006653,20.5921057 C70.1692461,20.5921057 76.7151084,23.2720806 82.1395838,28.634663 C87.5640593,33.9959291 90.2769629,40.4668311 90.2769629,48.0447366 L90.2769629,68.6368423 L90.2769629,68.6368423 Z" id="Lock"></path>
                                </g>
                            </g>
                        </g>
                    </g>
                </g>
            </g>
        </g>
    </g>
</svg>