<?xml version="1.0" encoding="UTF-8"?>
<svg width="53px" height="52px" viewBox="0 0 53 52" version="1.1" xmlns="http://www.w3.org/2000/svg" xmlns:xlink="http://www.w3.org/1999/xlink">
    <!-- Generator: Sketch 47.1 (45422) - http://www.bohemiancoding.com/sketch -->
    <title>Logo icon</title>
    <desc>Created with Sketch.</desc>
    <defs>
        <linearGradient x1="101.999998%" y1="100.999999%" x2="2.13837999%" y2="2.1174155%" id="linearGradient-1">
            <stop stop-color="#02BCD3" offset="0%"></stop>
            <stop stop-color="#6CF6DA" stop-opacity="0.49535779" offset="100%"></stop>
        </linearGradient>
    </defs>
    <g id="Landing-page-design" stroke="none" stroke-width="1" fill="none" fill-rule="evenodd">
        <g id="Tablet-design" transform="translate(-63.000000, -51.000000)">
            <g id="Hero-section">
                <g id="Header">
                    <g id="Logo-icon" transform="translate(62.000000, 51.000000)">
                        <g id="Icon-background" fill="url(#linearGradient-1)">
                            <path d="M27.72,52 C42.0352207,52 53.64,40.3594035 53.64,26 L53.64,0 L27.72,0 C13.4047793,0 1.8,11.6405965 1.8,26 C1.8,40.3594035 13.4047793,52 27.72,52 Z"></path>
                        </g>
                        <g id="Chat-icon" transform="translate(12.960000, 13.433333)" fill="#FFFFFE">
                            <path d="M7.23483871,8.43904511 C7.92798968,8.43904511 8.48903226,8.94590067 8.48903226,9.57041912 C8.48903226,10.1956918 7.92798968,10.7017931 7.23483871,10.7017931 C6.54168774,10.7017931 5.98064516,10.1956918 5.98064516,9.57041912 C5.98064516,8.94590067 6.54168774,8.43904511 7.23483871,8.43904511 L7.23483871,8.43904511 Z M12.2516129,8.43904511 C12.9447639,8.43904511 13.5058065,8.94590067 13.5058065,9.57041912 C13.5058065,10.1956918 12.9447639,10.7017931 12.2516129,10.7017931 C11.5584619,10.7017931 10.9974194,10.1956918 10.9974194,9.57041912 C10.9974194,8.94590067 11.5584619,8.43904511 12.2516129,8.43904511 L12.2516129,8.43904511 Z M17.2683871,8.43904511 C17.9615381,8.43904511 18.5225806,8.94590067 18.5225806,9.57041912 C18.5225806,10.1956918 17.9615381,10.7017931 17.2683871,10.7017931 C16.5752361,10.7017931 16.0141935,10.1956918 16.0141935,9.57041912 C16.0141935,8.94590067 16.5752361,8.43904511 17.2683871,8.43904511 L17.2683871,8.43904511 Z M9.85777548,18.0451647 C10.5074477,18.1409544 11.9848877,18.2442865 12.6696774,18.2442865 C18.6730839,18.2442865 22.7032258,14.2143323 22.7032258,9.47613795 C22.7032258,4.73794361 17.6672206,0.896551724 12.6696774,0.896551724 C6.65874581,0.896551724 1.8,4.73794361 1.8,9.47613795 C1.8,12.2216055 2.95971097,14.5514818 5.14451613,16.2296865 L5.14451613,20.5070345 L9.85777548,18.0451647 L9.85777548,18.0451647 Z M24.3328413,7.78963643 L24.3754839,8.43904511 C24.3821729,9.05526682 24.3754839,8.99869812 24.3754839,9.57041912 C24.3754839,15.5855576 19.121249,19.7527852 11.8335484,19.7527852 L9.32516129,19.7527852 C11.3151484,21.5086777 13.6303897,22.5812202 16.8503226,22.5812202 C17.5351123,22.5812202 18.2031794,22.5254058 18.8528516,22.4296161 L23.5393548,25.0325306 L23.5393548,20.7551826 C26.0811871,19.1840812 27.72,16.7471016 27.72,14.001634 C27.72,11.5548491 26.4148026,9.35244106 24.3328413,7.78963643 L24.3328413,7.78963643 Z" id="Fill-188"></path>
                        </g>
                    </g>
                </g>
            </g>
        </g>
    </g>
</svg>