<?xml version="1.0" encoding="UTF-8"?>
<svg width="136px" height="116px" viewBox="0 0 136 116" version="1.1" xmlns="http://www.w3.org/2000/svg" xmlns:xlink="http://www.w3.org/1999/xlink">
    <!-- Generator: Sketch 47.1 (45422) - http://www.bohemiancoding.com/sketch -->
    <title>Quote icon</title>
    <desc>Created with Sketch.</desc>
    <defs>
        <linearGradient x1="0%" y1="0%" x2="101.999998%" y2="100.999999%" id="linearGradient-1">
            <stop stop-color="#7AE4FF" offset="0%"></stop>
            <stop stop-color="#FC2F5D" offset="100%"></stop>
        </linearGradient>
    </defs>
    <g id="Landing-page-design" stroke="none" stroke-width="1" fill="none" fill-rule="evenodd" fill-opacity="0.151211504">
        <g id="Desktop-HD-design" transform="translate(-570.000000, -4040.000000)" fill="#607D8B">
            <g id="User--section" transform="translate(0.000000, 3636.000000)">
                <g id="Reviews" transform="translate(327.000000, 383.000000)">
                    <g id="User-(1)-review">
                        <g id="Review" transform="translate(243.000000, 21.000000)">
                            <g id="Background-+-details">
                                <g id="Quote-icon">
                                    <path d="M47.142,52.786 L28.892,52.786 C26.719,52.786 24.872,52.026 23.351,50.505 C21.831,48.984 21.07,47.137 21.07,44.964 L21.07,42.358 C21.07,36.6 23.107,31.685 27.181,27.611 C31.255,23.538 36.171,21.501 41.928,21.501 L47.142,21.501 C48.554,21.501 49.776,20.985 50.808,19.953 C51.84,18.921 52.356,17.699 52.356,16.287 L52.356,5.858 C52.356,4.446 51.84,3.223 50.808,2.191 C49.776,1.16 48.554,0.643 47.142,0.643 L41.928,0.643 C36.279,0.643 30.889,1.744 25.756,3.943 C20.623,6.143 16.183,9.117 12.435,12.865 C8.687,16.612 5.714,21.052 3.514,26.185 C1.314,31.318 0.214,36.709 0.214,42.358 L0.214,99.714 C0.214,104.061 1.734,107.753 4.776,110.795 C7.818,113.836 11.512,115.357 15.857,115.357 L47.144,115.357 C51.489,115.357 55.182,113.836 58.224,110.795 C61.265,107.753 62.786,104.061 62.786,99.714 L62.786,68.429 C62.786,64.083 61.265,60.391 58.222,57.348 C55.181,54.307 51.487,52.786 47.142,52.786 L47.142,52.786 Z" id="Qoute-2"></path>
                                    <path d="M131.225,57.348 C128.184,54.307 124.491,52.786 120.145,52.786 L101.895,52.786 C99.723,52.786 97.875,52.026 96.356,50.505 C94.835,48.984 94.075,47.137 94.075,44.964 L94.075,42.358 C94.075,36.6 96.112,31.685 100.184,27.611 C104.257,23.538 109.173,21.501 114.932,21.501 L120.145,21.501 C121.557,21.501 122.78,20.985 123.811,19.953 C124.843,18.921 125.36,17.699 125.36,16.287 L125.36,5.858 C125.36,4.446 124.843,3.223 123.811,2.191 C122.78,1.16 121.557,0.643 120.145,0.643 L114.932,0.643 C109.28,0.643 103.891,1.744 98.757,3.943 C93.625,6.143 89.186,9.117 85.438,12.865 C81.69,16.612 78.716,21.052 76.516,26.185 C74.317,31.318 73.216,36.709 73.216,42.358 L73.216,99.714 C73.216,104.061 74.737,107.753 77.778,110.795 C80.819,113.836 84.512,115.357 88.858,115.357 L120.143,115.357 C124.49,115.357 128.182,113.836 131.223,110.795 C134.266,107.753 135.785,104.061 135.785,99.714 L135.785,68.429 C135.785,64.083 134.266,60.391 131.225,57.348 L131.225,57.348 Z" id="Qoute-1"></path>
                                </g>
                            </g>
                        </g>
                    </g>
                </g>
            </g>
        </g>
    </g>
</svg>